<svg width="20" height="26" viewBox="0 0 20 26" fill="none" xmlns="http://www.w3.org/2000/svg">
<path d="M4.66666 9.154V1C4.66666 0.716667 4.76255 0.479222 4.95433 0.287667C5.14611 0.0958891 5.38366 0 5.667 0C5.95055 0 6.188 0.0958891 6.37933 0.287667C6.57089 0.479222 6.66666 0.716667 6.66666 1V9.154H8.513V1C8.513 0.716667 8.60878 0.479222 8.80033 0.287667C8.99211 0.0958891 9.22978 0 9.51333 0C9.79666 0 10.0341 0.0958891 10.2257 0.287667C10.417 0.479222 10.5127 0.716667 10.5127 1V9.154C10.5127 10.3471 10.1422 11.374 9.40133 12.2347C8.66022 13.0953 7.74866 13.6428 6.66666 13.877V25C6.66666 25.2833 6.57078 25.5208 6.379 25.7123C6.18722 25.9041 5.94966 26 5.66633 26C5.38277 26 5.14533 25.9041 4.954 25.7123C4.76244 25.5208 4.66666 25.2833 4.66666 25V13.877C3.58466 13.6428 2.67311 13.0953 1.932 12.2347C1.19111 11.374 0.820663 10.3471 0.820663 9.154V1C0.820663 0.716667 0.916553 0.479222 1.10833 0.287667C1.29989 0.0958891 1.53744 0 1.821 0C2.10433 0 2.34177 0.0958891 2.53333 0.287667C2.72466 0.479222 2.82033 0.716667 2.82033 1V9.154H4.66666ZM17.487 15.3333H15.053C14.7083 15.3333 14.421 15.2179 14.191 14.987C13.9612 14.7559 13.8463 14.4697 13.8463 14.1283V6.33333C13.8463 4.658 14.3309 3.18367 15.3 1.91033C16.2691 0.636778 17.2537 0 18.2537 0C18.6281 0 18.9273 0.134223 19.1513 0.402667C19.3751 0.670889 19.487 1.00767 19.487 1.413V25C19.487 25.2833 19.3911 25.5208 19.1993 25.7123C19.0078 25.9041 18.7702 26 18.4867 26C18.2033 26 17.9659 25.9041 17.7743 25.7123C17.5828 25.5208 17.487 25.2833 17.487 25V15.3333Z" fill="#999999"/>
</svg>
