<svg width="20" height="26" viewBox="0 0 20 26" fill="none" xmlns="http://www.w3.org/2000/svg">
<path d="M4.6964 9.154V1C4.6964 0.716667 4.79229 0.479222 4.98407 0.287667C5.17585 0.0958891 5.4134 0 5.69674 0C5.98029 0 6.21774 0.0958891 6.40907 0.287667C6.60063 0.479222 6.6964 0.716667 6.6964 1V9.154H8.54274V1C8.54274 0.716667 8.63851 0.479222 8.83007 0.287667C9.02185 0.0958891 9.25951 0 9.54307 0C9.8264 0 10.0638 0.0958891 10.2554 0.287667C10.4467 0.479222 10.5424 0.716667 10.5424 1V9.154C10.5424 10.3471 10.172 11.374 9.43107 12.2347C8.68996 13.0953 7.7784 13.6428 6.6964 13.877V25C6.6964 25.2833 6.60051 25.5208 6.40874 25.7123C6.21696 25.9041 5.9794 26 5.69607 26C5.41251 26 5.17507 25.9041 4.98374 25.7123C4.79218 25.5208 4.6964 25.2833 4.6964 25V13.877C3.6144 13.6428 2.70285 13.0953 1.96174 12.2347C1.22085 11.374 0.850403 10.3471 0.850403 9.154V1C0.850403 0.716667 0.946292 0.479222 1.13807 0.287667C1.32963 0.0958891 1.56718 0 1.85074 0C2.13407 0 2.37151 0.0958891 2.56307 0.287667C2.7544 0.479222 2.85007 0.716667 2.85007 1V9.154H4.6964ZM17.5167 15.3333H15.0827C14.7381 15.3333 14.4507 15.2179 14.2207 14.987C13.991 14.7559 13.8761 14.4697 13.8761 14.1283V6.33333C13.8761 4.658 14.3606 3.18367 15.3297 1.91033C16.2988 0.636778 17.2834 0 18.2834 0C18.6578 0 18.9571 0.134223 19.1811 0.402667C19.4048 0.670889 19.5167 1.00767 19.5167 1.413V25C19.5167 25.2833 19.4208 25.5208 19.2291 25.7123C19.0375 25.9041 18.8 26 18.5164 26C18.2331 26 17.9956 25.9041 17.8041 25.7123C17.6125 25.5208 17.5167 25.2833 17.5167 25V15.3333Z" fill="#999999"/>
</svg>