<svg width="21" height="23" viewBox="0 0 21 23" fill="none" xmlns="http://www.w3.org/2000/svg">
<path d="M2.02972 20.3333H6.49139V13.6153C6.49139 13.274 6.60684 12.9878 6.83772 12.7567C7.06884 12.5258 7.35506 12.4103 7.69639 12.4103H12.3631C12.7044 12.4103 12.9906 12.5258 13.2217 12.7567C13.4526 12.9878 13.5681 13.274 13.5681 13.6153V20.3333H18.0297V8.53835C18.0297 8.47013 18.0147 8.40824 17.9847 8.35268C17.9549 8.29712 17.9144 8.2479 17.8631 8.20501L10.2734 2.50001C10.2049 2.44024 10.1237 2.41035 10.0297 2.41035C9.93572 2.41035 9.8545 2.44024 9.78606 2.50001L2.19639 8.20501C2.14506 8.2479 2.1045 8.29712 2.07472 8.35268C2.04472 8.40824 2.02972 8.47013 2.02972 8.53835V20.3333ZM0.0297241 20.3333V8.53835C0.0297241 8.15679 0.115057 7.79535 0.285724 7.45401C0.456613 7.11246 0.692613 6.83124 0.993724 6.61035L8.58372 0.892347C9.00484 0.571013 9.48617 0.410346 10.0277 0.410346C10.5693 0.410346 11.0519 0.571013 11.4757 0.892347L19.0657 6.61035C19.3668 6.83124 19.6028 7.11246 19.7737 7.45401C19.9444 7.79535 20.0297 8.15679 20.0297 8.53835V20.3333C20.0297 20.8787 19.8327 21.3483 19.4387 21.7423C19.0447 22.1363 18.5751 22.3333 18.0297 22.3333H12.7734C12.4318 22.3333 12.1456 22.2178 11.9147 21.9867C11.6836 21.7558 11.5681 21.4696 11.5681 21.128V14.4103H8.49139V21.128C8.49139 21.4696 8.37584 21.7558 8.14472 21.9867C7.91384 22.2178 7.62761 22.3333 7.28606 22.3333H2.02972C1.48439 22.3333 1.01472 22.1363 0.620724 21.7423C0.226724 21.3483 0.0297241 20.8787 0.0297241 20.3333Z" fill="#999999"/>
</svg>