<svg width="21" height="20" viewBox="0 0 21 20" fill="none" xmlns="http://www.w3.org/2000/svg">
<path d="M10.0297 9.58965C8.74639 9.58965 7.64784 9.13276 6.73406 8.21899C5.82006 7.30499 5.36306 6.20632 5.36306 4.92299C5.36306 3.63965 5.82006 2.5411 6.73406 1.62732C7.64784 0.713321 8.74639 0.256321 10.0297 0.256321C11.3131 0.256321 12.4116 0.713321 13.3254 1.62732C14.2394 2.5411 14.6964 3.63965 14.6964 4.92299C14.6964 6.20632 14.2394 7.30499 13.3254 8.21899C12.4116 9.13276 11.3131 9.58965 10.0297 9.58965ZM0.0297241 17.718V16.7793C0.0297241 16.1264 0.207058 15.5218 0.561724 14.9653C0.916391 14.4089 1.39039 13.9811 1.98372 13.682C3.3015 13.036 4.63095 12.5514 5.97206 12.2283C7.31317 11.9052 8.66572 11.7437 10.0297 11.7437C11.3937 11.7437 12.7463 11.9052 14.0874 12.2283C15.4285 12.5514 16.7579 13.036 18.0757 13.682C18.6691 13.9811 19.1431 14.4089 19.4977 14.9653C19.8524 15.5218 20.0297 16.1264 20.0297 16.7793V17.718C20.0297 18.2802 19.8327 18.7584 19.4387 19.1527C19.0447 19.5467 18.5665 19.7437 18.0041 19.7437H2.05539C1.49295 19.7437 1.01472 19.5467 0.620724 19.1527C0.226724 18.7584 0.0297241 18.2802 0.0297241 17.718ZM2.02972 17.7437H18.0297V16.7793C18.0297 16.5093 17.9515 16.2593 17.7951 16.0293C17.6386 15.7995 17.4263 15.612 17.1581 15.4667C16.0092 14.9009 14.8378 14.4722 13.6441 14.1807C12.4501 13.8893 11.2453 13.7437 10.0297 13.7437C8.81417 13.7437 7.60939 13.8893 6.41539 14.1807C5.22161 14.4722 4.05028 14.9009 2.90139 15.4667C2.63317 15.612 2.42084 15.7995 2.26439 16.0293C2.10795 16.2593 2.02972 16.5093 2.02972 16.7793V17.7437ZM10.0297 7.58965C10.7631 7.58965 11.3908 7.32854 11.9131 6.80632C12.4353 6.2841 12.6964 5.65632 12.6964 4.92299C12.6964 4.18965 12.4353 3.56188 11.9131 3.03965C11.3908 2.51743 10.7631 2.25632 10.0297 2.25632C9.29639 2.25632 8.66861 2.51743 8.14639 3.03965C7.62417 3.56188 7.36306 4.18965 7.36306 4.92299C7.36306 5.65632 7.62417 6.2841 8.14639 6.80632C8.66861 7.32854 9.29639 7.58965 10.0297 7.58965Z" fill="#999999"/>
</svg>