<svg width="20" height="20" viewBox="0 0 20 20" fill="none" xmlns="http://www.w3.org/2000/svg">
<path d="M10 9.58965C8.71667 9.58965 7.61811 9.13276 6.70433 8.21899C5.79033 7.30499 5.33333 6.20632 5.33333 4.92299C5.33333 3.63965 5.79033 2.5411 6.70433 1.62732C7.61811 0.713321 8.71667 0.256321 10 0.256321C11.2833 0.256321 12.3819 0.713321 13.2957 1.62732C14.2097 2.5411 14.6667 3.63965 14.6667 4.92299C14.6667 6.20632 14.2097 7.30499 13.2957 8.21899C12.3819 9.13276 11.2833 9.58965 10 9.58965ZM0 17.718V16.7793C0 16.1264 0.177334 15.5218 0.532 14.9653C0.886667 14.4089 1.36067 13.9811 1.954 13.682C3.27178 13.036 4.60122 12.5514 5.94233 12.2283C7.28344 11.9052 8.636 11.7437 10 11.7437C11.364 11.7437 12.7166 11.9052 14.0577 12.2283C15.3988 12.5514 16.7282 13.036 18.046 13.682C18.6393 13.9811 19.1133 14.4089 19.468 14.9653C19.8227 15.5218 20 16.1264 20 16.7793V17.718C20 18.2802 19.803 18.7584 19.409 19.1527C19.015 19.5467 18.5368 19.7437 17.9743 19.7437H2.02567C1.46322 19.7437 0.985 19.5467 0.591 19.1527C0.197 18.7584 0 18.2802 0 17.718ZM2 17.7437H18V16.7793C18 16.5093 17.9218 16.2593 17.7653 16.0293C17.6089 15.7995 17.3966 15.612 17.1283 15.4667C15.9794 14.9009 14.8081 14.4722 13.6143 14.1807C12.4203 13.8893 11.2156 13.7437 10 13.7437C8.78444 13.7437 7.57967 13.8893 6.38567 14.1807C5.19189 14.4722 4.02056 14.9009 2.87167 15.4667C2.60344 15.612 2.39111 15.7995 2.23467 16.0293C2.07822 16.2593 2 16.5093 2 16.7793V17.7437ZM10 7.58965C10.7333 7.58965 11.3611 7.32854 11.8833 6.80632C12.4056 6.2841 12.6667 5.65632 12.6667 4.92299C12.6667 4.18965 12.4056 3.56188 11.8833 3.03965C11.3611 2.51743 10.7333 2.25632 10 2.25632C9.26667 2.25632 8.63889 2.51743 8.11667 3.03965C7.59444 3.56188 7.33333 4.18965 7.33333 4.92299C7.33333 5.65632 7.59444 6.2841 8.11667 6.80632C8.63889 7.32854 9.26667 7.58965 10 7.58965Z" fill="#999999"/>
</svg>
