<svg width="28" height="20" viewBox="0 0 28 20" fill="none" xmlns="http://www.w3.org/2000/svg">
<path d="M3.99932 4.89217V6.86123L2.81562 6.8848C2.69463 6.8848 2.59634 6.92259 2.52076 6.99817C2.44517 7.07375 2.40746 7.17196 2.40762 7.2928L2.40762 12.6739C2.40746 12.7947 2.44517 12.8929 2.52076 12.9685C2.59634 13.0441 2.69463 13.0819 2.81562 13.0819L3.99932 13.1055L3.99932 15.1217L2.74302 15.1452C2.10474 15.1452 1.55563 14.9074 1.0957 14.4318C0.635767 13.9561 0.405799 13.3991 0.405799 12.7609L0.405799 7.20583C0.4058 6.56754 0.635765 6.01843 1.0957 5.5585C1.55563 5.09857 2.10474 4.8686 2.74302 4.8686L3.99932 4.89217ZM25.2903 4.8686C25.9286 4.8686 26.4777 5.09857 26.9376 5.5585C27.3976 6.01844 27.6275 6.56755 27.6275 7.20583L27.6273 12.6885C27.6274 13.3389 27.3885 13.9031 26.9105 14.3811C26.4325 14.8591 25.8682 15.0981 25.2177 15.0981L24.0576 15.0981L24.0576 13.0819L25.2323 13.0965C25.3533 13.0965 25.4516 13.0587 25.5272 12.9831C25.6028 12.9075 25.6405 12.8093 25.6403 12.6885L25.6403 7.27819C25.6405 7.15735 25.6028 7.05914 25.5272 6.98356C25.4516 6.90798 25.3533 6.87019 25.2323 6.87019L24.0576 6.8848V4.8686L25.2903 4.8686ZM8.85667 2.76897H6.44166C6.32067 2.76897 6.22089 2.80825 6.14232 2.88682C6.06375 2.96538 6.02447 3.06516 6.02447 3.18616L6.02447 16.7805C6.02447 16.9015 6.06375 17.0013 6.14232 17.0799C6.22089 17.1584 6.32067 17.1977 6.44166 17.1977L8.85667 17.1977C8.97751 17.1976 9.07564 17.1598 9.15106 17.0843C9.22664 17.0088 9.26451 16.9106 9.26467 16.7897L9.26467 3.17697C9.26451 3.05613 9.22664 2.95792 9.15106 2.88234C9.07564 2.80691 8.9775 2.76912 8.85667 2.76897ZM21.6388 2.76897L19.2092 2.78358C19.0885 2.78358 18.9904 2.82137 18.9148 2.89695C18.8392 2.97254 18.8014 3.07066 18.8014 3.19134L18.8014 16.7753C18.8014 16.896 18.8392 16.9941 18.9148 17.0697C18.9904 17.1453 19.0885 17.1831 19.2092 17.1831L21.6388 17.1977C21.7598 17.1977 21.8596 17.1584 21.9381 17.0799C22.0167 17.0013 22.056 16.9015 22.056 16.7805L22.056 3.18616C22.056 3.06517 22.0167 2.96538 21.9381 2.88682C21.8596 2.80825 21.7598 2.76897 21.6388 2.76897ZM16.7998 8.41686L11.266 8.40225L11.266 11.5644L16.7998 11.5498L16.7998 8.41686ZM21.6334 0.776575C22.2838 0.776418 22.8489 1.01628 23.3288 1.49617C23.8087 1.97606 24.0485 2.5412 24.0484 3.19158L24.0484 16.7751C24.0485 17.4255 23.8087 17.9906 23.3288 18.4705C22.8489 18.9504 22.2838 19.1903 21.6334 19.1901L19.2092 19.1993C18.559 19.1993 17.9948 18.9603 17.5168 18.4823C17.0387 18.0041 16.7996 17.4399 16.7996 16.7897L16.7998 13.566L11.2516 13.5658L11.2663 16.7751C11.2663 17.4253 11.0247 17.992 10.5417 18.475C10.0588 18.9579 9.49228 19.1993 8.84206 19.1993L6.4089 19.1991C5.75852 19.1992 5.19433 18.9603 4.71632 18.4823C4.23832 18.0043 3.9994 17.4401 3.99955 16.7897L3.99955 3.17697C3.99939 2.52658 4.23832 1.96239 4.71632 1.48439C5.19433 1.00638 5.75852 0.76746 6.4089 0.767618L8.84205 0.767382C9.49228 0.767382 10.0588 1.00882 10.5417 1.4917C11.0247 1.97473 11.2663 2.54136 11.2663 3.19158L11.2516 6.4009L16.7998 6.40067L16.7996 3.17697C16.7996 2.52674 17.0387 1.96255 17.5168 1.48439C17.9948 1.00639 18.559 0.767385 19.2092 0.767385L21.6334 0.776575Z" fill="#999999"/>
</svg>
