<svg width="28" height="20" viewBox="0 0 28 20" fill="none" xmlns="http://www.w3.org/2000/svg">
<path d="M4.02904 4.89217V6.86123L2.84534 6.8848C2.72435 6.8848 2.62606 6.92259 2.55048 6.99817C2.4749 7.07375 2.43719 7.17196 2.43734 7.2928L2.43734 12.6739C2.43719 12.7947 2.4749 12.8929 2.55048 12.9685C2.62606 13.0441 2.72435 13.0819 2.84534 13.0819L4.02904 13.1055L4.02904 15.1217L2.77275 15.1452C2.13447 15.1452 1.58536 14.9074 1.12542 14.4318C0.665491 13.9561 0.435523 13.3991 0.435524 12.7609L0.435523 7.20583C0.435524 6.56754 0.665489 6.01843 1.12542 5.5585C1.58536 5.09857 2.13447 4.8686 2.77275 4.8686L4.02904 4.89217ZM25.32 4.8686C25.9583 4.8686 26.5074 5.09857 26.9674 5.5585C27.4273 6.01844 27.6572 6.56755 27.6573 7.20583L27.657 12.6885C27.6572 13.3389 27.4182 13.9031 26.9402 14.3811C26.4622 14.8591 25.898 15.0981 25.2474 15.0981L24.0873 15.0981L24.0873 13.0819L25.262 13.0965C25.383 13.0965 25.4813 13.0587 25.5569 12.9831C25.6325 12.9075 25.6702 12.8093 25.67 12.6885L25.67 7.27819C25.6702 7.15735 25.6325 7.05914 25.5569 6.98356C25.4813 6.90798 25.383 6.87019 25.262 6.87019L24.0873 6.8848V4.8686L25.32 4.8686ZM8.88639 2.76897H6.47139C6.35039 2.76897 6.25061 2.80825 6.17204 2.88682C6.09348 2.96538 6.05419 3.06516 6.05419 3.18616L6.0542 16.7805C6.0542 16.9015 6.09348 17.0013 6.17205 17.0799C6.25061 17.1584 6.35039 17.1977 6.47139 17.1977L8.88639 17.1977C9.00723 17.1976 9.10536 17.1598 9.18079 17.0843C9.25637 17.0088 9.29424 16.9106 9.29439 16.7897L9.29439 3.17697C9.29424 3.05613 9.25637 2.95792 9.18078 2.88234C9.10536 2.80691 9.00723 2.76912 8.88639 2.76897ZM21.6685 2.76897L19.2389 2.78358C19.1182 2.78358 19.0201 2.82137 18.9445 2.89695C18.8689 2.97254 18.8311 3.07066 18.8311 3.19134L18.8311 16.7753C18.8311 16.896 18.8689 16.9941 18.9445 17.0697C19.0201 17.1453 19.1182 17.1831 19.2389 17.1831L21.6685 17.1977C21.7895 17.1977 21.8893 17.1584 21.9679 17.0799C22.0464 17.0013 22.0857 16.9015 22.0857 16.7805L22.0857 3.18616C22.0857 3.06517 22.0464 2.96538 21.9679 2.88682C21.8893 2.80825 21.7895 2.76897 21.6685 2.76897ZM16.8296 8.41686L11.2957 8.40225L11.2957 11.5644L16.8296 11.5498L16.8296 8.41686ZM21.6631 0.776575C22.3135 0.776418 22.8786 1.01628 23.3585 1.49617C23.8384 1.97606 24.0783 2.5412 24.0781 3.19158L24.0781 16.7751C24.0783 17.4255 23.8384 17.9906 23.3585 18.4705C22.8786 18.9504 22.3135 19.1903 21.6631 19.1901L19.2389 19.1993C18.5887 19.1993 18.0246 18.9603 17.5466 18.4823C17.0684 18.0041 16.8293 17.4399 16.8293 16.7897L16.8296 13.566L11.2814 13.5658L11.296 16.7751C11.296 17.4253 11.0545 17.992 10.5714 18.475C10.0886 18.9579 9.522 19.1993 8.87178 19.1993L6.43862 19.1991C5.78824 19.1992 5.22405 18.9603 4.74605 18.4823C4.26804 18.0043 4.02912 17.4401 4.02928 16.7897L4.02928 3.17697C4.02912 2.52658 4.26804 1.96239 4.74605 1.48439C5.22405 1.00638 5.78824 0.76746 6.43862 0.767618L8.87178 0.767382C9.522 0.767382 10.0886 1.00882 10.5714 1.4917C11.0545 1.97473 11.296 2.54136 11.296 3.19158L11.2814 6.4009L16.8296 6.40067L16.8293 3.17697C16.8293 2.52674 17.0684 1.96255 17.5466 1.48439C18.0246 1.00639 18.5887 0.767385 19.2389 0.767385L21.6631 0.776575Z" fill="#999999"/>
</svg>