<svg width="412" height="917" viewBox="0 0 412 917" fill="none" xmlns="http://www.w3.org/2000/svg">
<path d="M130 943C130 943 119.059 939.422 154 884C188.941 828.578 174.5 793.662 210 784.5C245.5 775.338 306.93 819.575 343 771.5C379.07 723.425 365.991 701.62 413.5 679.724C461.009 657.829 633.544 679.724 633.544 679.724" stroke="#3D2400" stroke-width="2"/>
<path d="M262.378 -42.7045C262.378 -42.7045 192.886 -71.2738 198.616 -6.00764C204.345 59.2585 260.476 82.6804 227.136 124.923C193.796 167.166 95.1533 129.461 95.5377 189.562C95.9221 249.663 149.781 330.852 125.214 377.036C100.647 423.22 -23.5786 423.748 -23.5786 423.748" stroke="#123411" stroke-width="2"/>
<path d="M-23.5001 412C-23.5001 412 -48.4958 433.514 -9.50032 464.303C29.4951 495.093 70.2334 477.904 77.1495 517.179C84.0655 556.453 14.3883 588.448 47.8782 619.355C81.3682 650.262 122 677.5 122 716C122 754.5 1.70231 856 1.70231 856" stroke="#441410" stroke-width="2"/>
<path d="M452.504 375.958C452.504 375.958 509.463 353.054 460.89 316.41C412.316 279.765 366.067 298.054 354.372 252.797C342.677 207.539 386.576 185.227 364.076 143.727C341.576 102.227 279.195 97.7975 260.076 55.2265C240.957 12.6555 279.566 -76 279.566 -76" stroke="#0C2335" stroke-width="2"/>
</svg>
